<svg xmlns="http://www.w3.org/2000/svg" xmlns:xlink="http://www.w3.org/1999/xlink" width="86.939" height="86.939" viewBox="0 0 86.939 86.939"><defs><style>.a{fill:url(#a);}</style><linearGradient id="a" y1="0.504" x2="1" y2="0.504" gradientUnits="objectBoundingBox"><stop offset="0" stop-color="#00f2fe"/><stop offset="0.021" stop-color="#2c35b9"/><stop offset="0.293" stop-color="#a337ed"/><stop offset="0.554" stop-color="#d7a8f7"/><stop offset="0.796" stop-color="#dfebfc"/><stop offset="1" stop-color="#d7a8f7"/></linearGradient></defs><path class="a" d="M73.186,73.355a3.4,3.4,0,1,1,3.4-3.4A3.4,3.4,0,0,1,73.186,73.355ZM84.34,58.515a9.151,9.151,0,0,0-8.35-5.367H65.376a8.991,8.991,0,0,0-8.5,5.741c-.178.464-.4,1.049-.624,1.731H34.021a3.4,3.4,0,0,0-2.437,1.03l-5.834,6.009a3.4,3.4,0,0,0,.014,4.746l5.943,6.047a3.4,3.4,0,0,0,2.422,1.016H45.168a3.4,3.4,0,1,0,0-6.792H35.555l-2.62-2.666,2.523-2.6H58.8a3.4,3.4,0,0,0,3.3-2.588,28.066,28.066,0,0,1,1.118-3.5,2.226,2.226,0,0,1,2.163-1.386h10.6a2.317,2.317,0,0,1,2.157,1.347,21.932,21.932,0,0,1,2.008,8.658,22.581,22.581,0,0,1-1.993,8.812,2.319,2.319,0,0,1-2.133,1.39H65.3a2.417,2.417,0,0,1-2.19-1.5,22.574,22.574,0,0,1-1.052-3.362,3.4,3.4,0,1,0-6.606,1.581,29.228,29.228,0,0,0,1.379,4.37,9.161,9.161,0,0,0,8.461,5.706h10.74a9.105,9.105,0,0,0,8.351-5.468,29.4,29.4,0,0,0,2.559-11.542A28.752,28.752,0,0,0,84.34,58.515ZM25.725,83.543a3.4,3.4,0,0,1-3.4,3.4H10.306A10.317,10.317,0,0,1,.221,74.5,44.163,44.163,0,0,1,29.655,41.588,23.094,23.094,0,1,1,57.3,41.577q.853.281,1.7.6a3.4,3.4,0,0,1-2.388,6.359,37.2,37.2,0,0,0-12.266-2.363c-.29.011-.581.018-.873.018s-.578-.007-.865-.018A37.522,37.522,0,0,0,6.87,75.881a3.549,3.549,0,0,0,.719,2.975,3.45,3.45,0,0,0,2.717,1.292H22.329A3.4,3.4,0,0,1,25.725,83.543ZM42.674,39.375c.265,0,.531-.009.8-.009s.529,0,.794.009a16.3,16.3,0,1,0-1.59,0Z" transform="translate(0)"/></svg>