<svg xmlns="http://www.w3.org/2000/svg" width="480" height="433" viewBox="0 0 480 433"><defs><style>.a{fill:#ebf3fa;}.b{fill:rgba(163,55,237,0.2);}.c{fill:#f8b88b;}.d{fill:rgba(249,11,11,0.62);}.e{fill:#e5a27c;}.f{fill:#ffc197;}.g{fill:#2c35b9;}.h{fill:#c0d8fb;}.i{fill:#cbe1fd;}.j{fill:#2b478b;}.k{fill:#ffd3b6;}.l{fill:#6d70a4;}.m{fill:#f3f8ff;}.n{fill:none;}.o{fill:#0d458d;}.p{fill:#5a6e7f;}.q{fill:#699dee;}.r,.s{fill:#fff;}.s{stroke:#2e3192;stroke-miterlimit:10;stroke-width:6px;}</style></defs><rect class="a" width="480" height="433"/><g transform="translate(0 55.723)"><path class="b" d="M438.964,779.656s-19.127,39.023-26.955,35.365,24.787-42.1,24.787-42.1-23.825-37.526-38.724-44.97c0,0-3.636,47.432-10.227,42.149s-5.348-54.8-5.348-54.8-31.852-28.736-52.581-12.858-18.7,31.5-14.224,36.076,39.484,25.687,35.486,29.194-32.387-4.524-42.666-16.287c0,0-10.056,41.057,10.107,51.169s34.078,3.178,46.413,9.632,18.729,14.61,10.7,13.82-26.4-15-41.388-13.611-26.063,1.108-10.968,15.259,48.187,31.684,63.788,23.4l1.952-1.036a9.031,9.031,0,0,1-1.952,1.036c1.943,3.717.6,14.867-.782,23.2-.329,1.361-.688,3.3-1.079,6h0c-.23,1.186-.427,2.153-.566,2.823-4.463,17.825-26.147,39.934-26.147,39.934l3.06,3.239c26.866-19.173,27.511-48.216,27.511-48.216,2.621-21.722,13.606-35.263,13.606-35.263s46.808,3.89,48.7-29.062C451.467,813.753,449.692,791.7,438.964,779.656Z" transform="translate(-232.614 -602.143)"/><path class="c" d="M887.122,523.115s-22.839,41.217-46.041,69.669c-9.231,11.324-18.52,20.625-26.446,24.5-7.761,3.795-14.33,9.692-19.765,16.228-14.078,16.921-20.575,38.1-20.575,38.1L714.97,590.655s2.024-79.143,9.147-92.381C734.5,478.982,739.515,440,743.5,432.242c2.96-5.757,11.409-35.494,12.219-37.679.353-.941,3.163-2.386,6.814-2.382a10.313,10.313,0,0,1,9.159,7.8c6.344,26.535-1.293,44.036-1.206,44.815,2.238,20.393-4.49,35.531.228,39.54.175.149.5.078.964-.188,8.178-4.738,58.939-71.495,65.191-72.936C843.473,409.694,887.122,523.115,887.122,523.115Z" transform="translate(-543.496 -362.754)"/><path class="d" d="M552.544,1476.625s-.808,35.979-3.12,84.437H399.78c34.205-65.8,63.944-121.182,63.944-121.182S548.93,1442.227,552.544,1476.625Z" transform="translate(-303.899 -1183.785)"/><path class="c" d="M1461.683,282.11l-18.371,24.3-18.028,23.842a4.337,4.337,0,0,1-3.749,1.493c-4.327-.37-9.68-6-13.85-9.115l-.422-.314a10.967,10.967,0,0,1-1.727-16.482l27.554-30.047v0l8.174-8.909a14,14,0,0,1,18.271-1.558l.422.314A10.968,10.968,0,0,1,1461.683,282.11Z" transform="translate(-1066.188 -261.241)"/><path class="c" d="M1503.417,354l-18.028,23.842a4.338,4.338,0,0,1-3.749,1.493l11.553-55.957C1493.219,323.694,1495.183,348.8,1503.417,354Z" transform="translate(-1126.293 -308.839)"/><path class="e" d="M1009.076,1301.368c-9.231,11.324-18.52,20.625-26.446,24.5-7.761,3.795-14.33,9.692-19.765,16.228-6.252-2.629-13.38-5.714-20.347-8.769-8.483-3.719-8.809-14.586-.5-18.613.082-.039.161-.08.24-.119,7.787-4.02,15.764-18.21,15.764-18.21Z" transform="translate(-711.491 -1071.339)"/><path class="f" d="M867.916,408.87l-4.806,17.507s4.2,1.551,6.9.346S874.912,409.813,867.916,408.87Z" transform="translate(-656.107 -375.833)"/><g transform="translate(228.197)"><path class="g" d="M1073.33,494.473H969.966c-10.167,0-18.486-7.5-18.486-16.676V272.846c0-9.171,8.317-16.676,18.486-16.676H1073.33c10.167,0,18.486,7.5,18.486,16.676V477.8C1091.814,486.968,1083.5,494.473,1073.33,494.473Z" transform="translate(-951.48 -256.17)"/><g transform="translate(6.953 5.906)"><path class="h" d="M1106.9,295.817v200.2c0,6.791-6.116,12.347-13.589,12.347h-99.25c-7.471,0-13.587-5.556-13.587-12.347v-200.2c0-6.791,6.113-12.347,13.587-12.347h99.25C1100.78,283.47,1106.9,289.026,1106.9,295.817Z" transform="translate(-980.47 -283.47)"/><path class="i" d="M1093.317,283.47l-98.022,224.9h-1.228c-7.471,0-13.587-5.556-13.587-12.347v-200.2c0-6.791,6.113-12.347,13.587-12.347Z" transform="translate(-980.478 -283.47)"/></g><path class="j" d="M1179.576,274.568h-41.482c-3.379,0-6.145-2.495-6.145-5.543v-.872c0-3.048,2.765-5.543,6.145-5.543h41.482c3.379,0,6.145,2.495,6.145,5.543v.872C1185.718,272.075,1182.955,274.568,1179.576,274.568Z" transform="translate(-1088.667 -261.217)"/></g><g transform="translate(347.918 90.083)"><path class="c" d="M1489.1,695.078l-2.739.939-18.424,6.315a13.044,13.044,0,0,1-1.3.374c-6.1,1.43-12.591-1.5-14.879-6.934l-.271-.638c-2.451-5.82.82-12.39,7.272-14.6l17.174-5.887,1.247-.428,2.739-.939c6.452-2.211,13.733.74,16.184,6.56l.271.638C1498.82,686.295,1495.548,692.867,1489.1,695.078Z" transform="translate(-1450.665 -672.544)"/><path class="k" d="M1489.973,728.97c-3.075,1.051-8.641,2.916-11.618,3.3a5.131,5.131,0,0,1-3.842-1.735,10.035,10.035,0,0,1-2.317-3.769,10.959,10.959,0,0,1-.631-2.406,9.173,9.173,0,0,1,.1-2.862,2.921,2.921,0,0,1,1.758-2.042s.01,0,.014-.007a77.845,77.845,0,0,1,11.174-3.953c2.585-.645,5.2.385,6.022,2.427l.386.954,1.976,4.885C1493.815,725.8,1492.484,728.115,1489.973,728.97Z" transform="translate(-1466.502 -706.055)"/><path class="f" d="M1495.948,738.865c-3.075,1.051-8.641,2.916-11.618,3.3a5.131,5.131,0,0,1-3.842-1.735c-.156-.325-.3-.669-.432-1.036a10.959,10.959,0,0,1-.631-2.406,9.169,9.169,0,0,1,.1-2.862,2.92,2.92,0,0,1,1.758-2.042s.01,0,.014-.007a77.85,77.85,0,0,1,11.174-3.953,5.776,5.776,0,0,1,4.523.647l1.976,4.885C1499.79,735.691,1498.459,738.011,1495.948,738.865Z" transform="translate(-1472.477 -715.951)"/></g><g transform="translate(353.071 120.111)"><path class="c" d="M1497.071,827.211l-14.208,3.49c-4.317,1.06-8.812-1.259-9.987-5.153l-.439-1.45c-1.175-3.894,1.4-7.949,5.713-9.009l14.208-3.49c4.317-1.06,8.812,1.259,9.987,5.154l.439,1.45C1503.959,822.1,1501.388,826.151,1497.071,827.211Z" transform="translate(-1472.153 -811.343)"/><path class="k" d="M1497.363,842.924a70.023,70.023,0,0,1-9.8,1.858,4.775,4.775,0,0,1-3.876-2.774,8.083,8.083,0,0,1-.727-1.807,7.806,7.806,0,0,1-.317-1.884,6.708,6.708,0,0,1,.317-2.194,2.4,2.4,0,0,1,1.607-1.465.029.029,0,0,0,.014-.007,68.874,68.874,0,0,1,9.49-2.388c2.173-.344,4.233.6,4.742,2.215l.367,1.155,1.094,3.466C1500.778,840.707,1499.5,842.414,1497.363,842.924Z" transform="translate(-1480.127 -827.683)"/><path class="f" d="M1499.765,849.906a70.041,70.041,0,0,1-9.8,1.858,4.775,4.775,0,0,1-3.876-2.774,7.352,7.352,0,0,1-.285-1.768,6.652,6.652,0,0,1,.317-2.194,2.41,2.41,0,0,1,1.607-1.465.028.028,0,0,0,.014-.007,68.279,68.279,0,0,1,9.49-2.384,4.534,4.534,0,0,1,4.351,1.443l1.094,3.466C1503.18,847.688,1501.9,849.4,1499.765,849.906Z" transform="translate(-1482.529 -834.664)"/></g><path class="l" d="M605.66,1435.141s29.243,25.265,48.955,35.021l14.925-9.55V1474.7s29.353,4.682,38.613,0v-38.417L625.708,1399Z" transform="translate(-460.402 -1151.749)"/><path class="m" d="M597.615,1296.38s-18.57,25.06-37.026,51.855c0,0,38.9,24.138,59.982,31.217l27.66-28.576-3.948,34.4s24.477,8.048,35.836,5.947c0,0-.717-31.206-.71-51.651C679.408,1339.57,612.118,1322.556,597.615,1296.38Z" transform="translate(-426.142 -1071.331)"/><path class="g" d="M734.009,1575.434a4.628,4.628,0,1,1,4.562,4.191A4.406,4.406,0,0,1,734.009,1575.434Z" transform="translate(-557.969 -1286.787)"/><g transform="translate(346.53 59.787)"><path class="c" d="M1484.249,560.782c-.1.032-.2.063-.307.1l-18.625,4.314c-8.19,1.9-16.659-2.1-18.822-8.883l-1.108-3.474c-2.077-6.512,2.389-13.323,10-15.532l6.149-1.426,12.476-2.888c8.19-1.9,16.659,2.1,18.82,8.883l1.108,3.475C1495.989,551.769,1491.672,558.48,1484.249,560.782Z" transform="translate(-1444.878 -532.515)"/><path class="k" d="M1518.053,579.8,1509,583.476c-.014,0-.031.007-.058.013a10.329,10.329,0,0,1-1.094.2c-.151.022-.307.037-.458.052a1.137,1.137,0,0,1-.192,0,1.307,1.307,0,0,1-1.25-1.835,7.375,7.375,0,0,0,.511-5.534l-.216-.712a.039.039,0,0,0-.007-.022l-.7-2.317a8.689,8.689,0,0,0-3.281-4.511c-.185-.136-.376-.264-.573-.385a2.264,2.264,0,0,1,.76-4.173c.019-.007.036-.009.057-.015l9.932-1.354a4.74,4.74,0,0,1,5.49,3.317l.8,2.639,1.7,5.629C1521.092,576.689,1520.509,579.2,1518.053,579.8Z" transform="translate(-1487.218 -556.221)"/><path class="f" d="M1523.393,593l-9.049,3.678c-.014,0-.031.006-.058.013-.211.037-.875.136-1.744.257a1.307,1.307,0,0,1-1.25-1.835,7.376,7.376,0,0,0,.511-5.534l-.216-.712a.038.038,0,0,0-.007-.022l-.7-2.317a8.689,8.689,0,0,0-3.281-4.511,2.53,2.53,0,0,1,1.425-.915c.017-.007.036-.009.058-.015l9.931-1.354a4.661,4.661,0,0,1,5.051,2.313l1.7,5.629C1526.432,589.886,1525.849,592.394,1523.393,593Z" transform="translate(-1492.557 -569.418)"/></g><path class="e" d="M913.031,728.787s-4.063-32-7.811-38.235-6.922-18.736-1.154-28.019,7.761-27.152,7.761-27.152c2.238,20.393-4.49,35.531.228,39.54.175.149.5.078.964-.188Z" transform="translate(-684.835 -553.338)"/><path class="b" d="M117.684,1360.034s-6.929-17.083-18.434-24.422c0,0-5.353,34.77-12.462,33.469s9.061-38.354,9.061-38.354-28.25-24.824-41.9-27.678c0,0,9.011,38.266,2.47,35.427s-17.961-42.26-17.961-42.26S14.618,1284.269,0,1291.473v40.113c11.188,4,28.49,9.844,26.813,12.477s-15.3,3.031-26.813.206v27.939a17.815,17.815,0,0,0,9.8,6.086c18.486,3.888,27.754-4.437,39.129-1.846s18.474,7.737,11.929,8.749-24.638-6.482-36.15-2.326-20.34,6.19-4.852,14.307,46.055,15.237,56.322,5.5l0,0q.673-.636,1.283-1.218l.007-.006a6.77,6.77,0,0,1-1.293,1.227c2.468,2.544,4.2,11.644,5.2,18.519.079,1.138.283,2.743.645,4.941.12,1.021.209,1.848.266,2.415a47.113,47.113,0,0,1-1.856,14.391h4.933a50.242,50.242,0,0,0-.847-19.329v0c-3.37-17.717,1.926-30.67,1.926-30.67h0C86.53,1392.939,124.44,1386.457,117.684,1360.034Z" transform="translate(0 -1065.675)"/><path class="b" d="M1304.525,1417.917c-6.5-21.663-47.026-14.894-47.026-14.894s-27.516,37.909-35.522,38.813,16.51-36.557,16.51-36.557c-15.51-1.354-55.032,15.8-55.032,15.8s2.5,44.228-5.5,43.326,0-39.263,0-39.263c-15.009,4.061-29.017,19.859-29.017,19.859-17.51,25.724,20.012,44.678,20.012,44.678s.5,15.344-10.006,32.946h0a50.446,50.446,0,0,0-4.782,8.773h4.092q.5-1.486,1.11-2.864a.027.027,0,0,1,.007-.017.292.292,0,0,1,.019-.039c.281-.571.684-1.383,1.185-2.371,0,0,0,0,0,0s0,0,0,0c1.25-2.207,2.094-3.838,2.629-5.015,0,0,0-.006,0-.011,3.746-6.93,9.142-15.958,12.74-17.853a6.882,6.882,0,0,1-.875-1.694c.278.541.571,1.1.875,1.694,7,13.539,42.026,15.8,61.536,12.185s11.006-8.574.5-16.633-32.519-5.932-39.023-9.093,3-6.317,16.009-5.415,19.51,12.637,40.525,14.441,37.021-33.848,37.021-33.848c-14.508,4.061-40.525-3.159-41.525-7.672s37.522-4.061,43.525-5.415S1311.03,1439.58,1304.525,1417.917Z" transform="translate(-869.842 -1154.117)"/></g><g transform="translate(245.748 91.65)"><path class="n" d="M1146.43,806.4a3.159,3.159,0,1,0,3.144-2.832A3,3,0,0,0,1146.43,806.4Z" transform="translate(-1117.226 -721.067)"/><path class="n" d="M1185.18,851.426a3.158,3.158,0,1,0,3.144-2.836A3,3,0,0,0,1185.18,851.426Z" transform="translate(-1146.682 -756.347)"/><path class="n" d="M1227.03,806.4a3.159,3.159,0,1,0,3.139-2.832A3,3,0,0,0,1227.03,806.4Z" transform="translate(-1178.495 -721.067)"/><path class="n" d="M1101.55,727.67v15.9c0,14.971,14.92,27.156,33.258,27.156s33.263-12.185,33.263-27.156v-15.9h-1.593v9.085c0,15.709-14.112,28.446-31.529,28.446s-31.528-12.734-31.528-28.446V727.67Z" transform="translate(-1083.109 -661.588)"/><path class="n" d="M1307.63,806.4a3.156,3.156,0,1,0,3.139-2.832A3,3,0,0,0,1307.63,806.4Z" transform="translate(-1239.764 -721.067)"/><path class="n" d="M1265.78,851.426a3.158,3.158,0,1,0,3.139-2.836A3,3,0,0,0,1265.78,851.426Z" transform="translate(-1207.951 -756.347)"/><path class="o" d="M1415.821,693.26h-2.2v4.509a1.8,1.8,0,0,0,1.468.749h6.9a1.7,1.7,0,0,0,1.784-1.61V685.37a1.7,1.7,0,0,0-1.784-1.61h-6.9a1.7,1.7,0,0,0-1.784,1.61v3.4h2.521c.986,0,1.784.344,1.784.766V692.5C1417.605,692.916,1416.809,693.26,1415.821,693.26Z" transform="translate(-1320.091 -627.178)"/><path class="o" d="M1032.426,688.766h2.705v-3.4a1.707,1.707,0,0,0-1.784-1.61h-6.9a1.706,1.706,0,0,0-1.784,1.61v11.538a1.706,1.706,0,0,0,1.784,1.61h6.9a1.865,1.865,0,0,0,1.187-.428V693.26h-2.11c-.988,0-1.784-.344-1.784-.766V689.53C1030.642,689.11,1031.438,688.766,1032.426,688.766Z" transform="translate(-1024.66 -627.178)"/><path class="p" d="M1137.136,727.285v-15.9h2.2c.986,0,1.784-.344,1.784-.766v-2.964c0-.422-.8-.766-1.784-.766h-12.363v4.5h1.593v15.9c0,14.971-14.92,27.156-33.263,27.156s-33.258-12.185-33.258-27.156v-15.9h1.868v-4.494h-12.543c-.988,0-1.784.344-1.784.766v2.964c0,.42.8.766,1.784.766h2.111v15.9c0,18.026,16.484,32.9,37.544,34.7v20.127h-11.435c-5.9,0-10.675,4.31-10.675,9.627v.1H1121.7v-.1c0-5.318-4.775-9.627-10.67-9.627H1099.6V761.986C1120.653,760.192,1137.136,745.312,1137.136,727.285Z" transform="translate(-1043.611 -645.304)"/><path class="p" d="M1155.23,459.951H1172.4v-5.53H1155.23a2.782,2.782,0,1,1,0-5.534h17.1c-1.024-14.874-14.714-26.656-31.464-26.656s-30.44,11.782-31.459,26.656h17.1a2.782,2.782,0,1,1,0,5.534H1109.34v5.53h17.174a2.783,2.783,0,1,1,0,5.536H1109.34v13.074H1172.4V465.487h-17.167a2.783,2.783,0,1,1,0-5.536Z" transform="translate(-1089.031 -422.23)"/><path class="g" d="M1109.332,695.145v13.58c0,15.709,14.119,28.446,31.528,28.446s31.529-12.734,31.529-28.446V691.9H1109.33v3.245Zm50.7,20.915a2.849,2.849,0,1,1-3.139,2.832A3,3,0,0,1,1160.028,716.06Zm-10.037,9.74a2.849,2.849,0,1,1-3.139,2.836A3,3,0,0,1,1149.991,725.8Zm-9.293-9.74a2.849,2.849,0,1,1-3.14,2.832A3,3,0,0,1,1140.7,716.06Zm-10.032,9.74a2.849,2.849,0,1,1-3.144,2.836A3,3,0,0,1,1130.666,725.8Zm-9.294-9.74a2.849,2.849,0,1,1-3.144,2.832A3,3,0,0,1,1121.372,716.06Zm52.711,63.512h0a1.33,1.33,0,0,0,1.393-1.257V768.153a1.33,1.33,0,0,0-1.393-1.257h0a1.33,1.33,0,0,0-1.394,1.257v10.162A1.333,1.333,0,0,0,1174.083,779.572Zm4.718-2.624h0a1.33,1.33,0,0,0,1.393-1.257v-5.822a1.33,1.33,0,0,0-1.393-1.257h0a1.33,1.33,0,0,0-1.393,1.257v5.822A1.33,1.33,0,0,0,1178.8,776.947Zm4.715,9.281h0a1.33,1.33,0,0,0,1.393-1.257V762.134a1.33,1.33,0,0,0-1.393-1.257h0a1.33,1.33,0,0,0-1.393,1.257v22.838A1.33,1.33,0,0,0,1183.515,786.229Zm4.715-5.309h0a1.33,1.33,0,0,0,1.394-1.257v-23.93a1.33,1.33,0,0,0-1.394-1.257h0a1.33,1.33,0,0,0-1.393,1.257v23.93A1.33,1.33,0,0,0,1188.23,780.919Zm4.715,10.766h0a1.33,1.33,0,0,0,1.393-1.257V766.8a1.33,1.33,0,0,0-1.393-1.257h0a1.33,1.33,0,0,0-1.393,1.257v23.623A1.33,1.33,0,0,0,1192.945,791.685Zm4.715-4.483h0a1.33,1.33,0,0,0,1.393-1.257V760.037a1.33,1.33,0,0,0-1.393-1.257h0a1.33,1.33,0,0,0-1.393,1.257v25.908A1.33,1.33,0,0,0,1197.661,787.2Zm4.715-10.255h0a1.33,1.33,0,0,0,1.393-1.257v-6.737a1.33,1.33,0,0,0-1.393-1.257h0a1.33,1.33,0,0,0-1.394,1.257v6.737A1.33,1.33,0,0,0,1202.376,776.947Zm4.715,2.624h0a1.33,1.33,0,0,0,1.393-1.257V768.153a1.33,1.33,0,0,0-1.393-1.257h0a1.33,1.33,0,0,0-1.394,1.257v10.162A1.33,1.33,0,0,0,1207.091,779.572Zm4.715-2.624h0a1.33,1.33,0,0,0,1.393-1.257v-5.822a1.33,1.33,0,0,0-1.393-1.257h0a1.33,1.33,0,0,0-1.393,1.257v5.822A1.33,1.33,0,0,0,1211.806,776.947Zm4.715,9.281h0a1.33,1.33,0,0,0,1.393-1.257V762.134a1.33,1.33,0,0,0-1.393-1.257h0a1.33,1.33,0,0,0-1.393,1.257v22.838A1.33,1.33,0,0,0,1216.521,786.229Zm4.715-5.309h0a1.33,1.33,0,0,0,1.393-1.257v-23.93a1.33,1.33,0,0,0-1.393-1.257h0a1.33,1.33,0,0,0-1.393,1.257v23.93A1.33,1.33,0,0,0,1221.236,780.919Zm4.715,10.766h0a1.33,1.33,0,0,0,1.393-1.257V766.8a1.33,1.33,0,0,0-1.393-1.257h0a1.33,1.33,0,0,0-1.393,1.257v23.623A1.333,1.333,0,0,0,1225.951,791.685Zm4.715-4.483h0a1.33,1.33,0,0,0,1.393-1.257V760.037a1.33,1.33,0,0,0-1.393-1.257h0a1.33,1.33,0,0,0-1.393,1.257v25.908A1.333,1.333,0,0,0,1230.666,787.2Zm4.718-10.255h0a1.33,1.33,0,0,0,1.393-1.257v-6.737a1.33,1.33,0,0,0-1.393-1.257h0a1.33,1.33,0,0,0-1.393,1.257v6.737A1.33,1.33,0,0,0,1235.384,776.947Zm4.715,2.624h0a1.33,1.33,0,0,0,1.393-1.257V768.153a1.33,1.33,0,0,0-1.393-1.257h0a1.33,1.33,0,0,0-1.393,1.257v10.162A1.33,1.33,0,0,0,1240.1,779.572Zm4.715-2.624h0a1.33,1.33,0,0,0,1.393-1.257v-5.822a1.33,1.33,0,0,0-1.393-1.257h0a1.33,1.33,0,0,0-1.394,1.257v5.822A1.33,1.33,0,0,0,1244.814,776.947Zm4.715,9.281h0a1.33,1.33,0,0,0,1.393-1.257V762.134a1.33,1.33,0,0,0-1.393-1.257h0a1.33,1.33,0,0,0-1.393,1.257v22.838A1.33,1.33,0,0,0,1249.529,786.229Zm4.715-5.309h0a1.33,1.33,0,0,0,1.394-1.257v-23.93a1.33,1.33,0,0,0-1.394-1.257h0a1.33,1.33,0,0,0-1.393,1.257v23.93A1.33,1.33,0,0,0,1254.244,780.919Zm4.715,10.766h0a1.33,1.33,0,0,0,1.394-1.257V766.8a1.33,1.33,0,0,0-1.394-1.257h0a1.33,1.33,0,0,0-1.393,1.257v23.623A1.33,1.33,0,0,0,1258.959,791.685Zm4.715-4.483h0a1.33,1.33,0,0,0,1.393-1.257V760.037a1.33,1.33,0,0,0-1.393-1.257h0a1.33,1.33,0,0,0-1.393,1.257v25.908A1.33,1.33,0,0,0,1263.675,787.2ZM1267,768.953v6.737a1.33,1.33,0,0,0,1.393,1.257h0a1.33,1.33,0,0,0,1.393-1.257v-6.737a1.33,1.33,0,0,0-1.393-1.257h0A1.33,1.33,0,0,0,1267,768.953Z" transform="translate(-1089.023 -633.557)"/></g><path class="q" d="M656.217,346.4h95.175c4.926,0,8.917-3.6,8.917-8.044V306.794c0-4.444-3.993-8.044-8.917-8.044H656.217c-4.926,0-8.917,3.6-8.917,8.044v31.565C647.3,342.8,651.291,346.4,656.217,346.4Z" transform="translate(-492.056 -233.815)"/><path class="r" d="M889.736,356.672H871.693a1.391,1.391,0,0,1-1.453-1.311h0a1.391,1.391,0,0,1,1.453-1.311h18.043a1.391,1.391,0,0,1,1.453,1.311h0A1.393,1.393,0,0,1,889.736,356.672Z" transform="translate(-661.527 -277.151)"/><g transform="translate(208.715 88.087)"><path class="r" d="M890.25,407.318H871.2a.879.879,0,0,1-.947-.779h0a.879.879,0,0,1,.947-.779H890.25a.879.879,0,0,1,.947.779h0A.879.879,0,0,1,890.25,407.318Z" transform="translate(-870.25 -405.76)"/><path class="r" d="M881.676,424.378H871.113a.827.827,0,0,1-.863-.779h0a.827.827,0,0,1,.863-.779h10.562a.827.827,0,0,1,.863.779h0A.825.825,0,0,1,881.676,424.378Z" transform="translate(-870.25 -419.129)"/><path class="r" d="M952.24,424.378H934.633a.827.827,0,0,1-.863-.779h0a.827.827,0,0,1,.863-.779H952.24a.827.827,0,0,1,.863.779h0A.827.827,0,0,1,952.24,424.378Z" transform="translate(-918.536 -419.129)"/><path class="r" d="M996.638,407.318H971.657a.879.879,0,0,1-.947-.779h0a.879.879,0,0,1,.947-.779h24.981a.879.879,0,0,1,.947.779h0A.879.879,0,0,1,996.638,407.318Z" transform="translate(-946.616 -405.76)"/><path class="r" d="M890.25,441.428H871.2a.879.879,0,0,1-.947-.779h0a.879.879,0,0,1,.947-.779H890.25a.879.879,0,0,1,.947.779h0A.879.879,0,0,1,890.25,441.428Z" transform="translate(-870.25 -432.49)"/><path class="r" d="M996.638,441.428H971.657a.879.879,0,0,1-.947-.779h0a.879.879,0,0,1,.947-.779h24.981a.879.879,0,0,1,.947.779h0A.879.879,0,0,1,996.638,441.428Z" transform="translate(-946.616 -432.49)"/></g><path class="r" d="M982.359,356.68H969.83a1.358,1.358,0,0,1-1.42-1.281v-.058a1.358,1.358,0,0,1,1.42-1.281h12.529a1.36,1.36,0,0,1,1.42,1.281v.058A1.36,1.36,0,0,1,982.359,356.68Z" transform="translate(-736.153 -277.159)"/><g transform="translate(325.209 51.971)"><path class="s" d="M1387.308,348.633l-6.742-6.2-19.376,17.306a3.863,3.863,0,0,0,2.7,1.095h46.895a3.858,3.858,0,0,0,2.7-1.095L1394.15,342.43Z" transform="translate(-1359.94 -320.016)"/><path class="s" d="M1413.476,239.925a3.863,3.863,0,0,0-2.7-1.095h-46.895a3.692,3.692,0,0,0-2.7,1.147l26.118,23.4Z" transform="translate(-1359.94 -238.83)"/><path class="s" d="M1355.98,255.45v33.937l18.928-16.787Z" transform="translate(-1355.98 -251.854)"/><path class="s" d="M1505.49,272.6l18.925,16.787V255.45Z" transform="translate(-1469.632 -251.854)"/></g></svg>