<svg xmlns="http://www.w3.org/2000/svg" xmlns:xlink="http://www.w3.org/1999/xlink" width="418.055" height="427.817" viewBox="0 0 418.055 427.817"><defs><style>.a{fill:none;}.b{fill:#ebf3f9;}.c{clip-path:url(#a);}.d{fill:rgba(163,55,237,0.2);}.e{fill:#f8b88b;}.f{fill:rgba(249,11,11,0.62);}.g{fill:#e5a27c;}.h{fill:#ffc196;}.i,.v{fill:#2c35b9;}.j{fill:#c0d7fa;}.k{fill:#cae0fc;}.l{fill:#ffd2b6;}.m{fill:#6d70a4;}.n{fill:#f3f8ff;}.o{fill:#fff;}.p{fill:#acbac7;}.q{fill:#ccdde6;}.r{clip-path:url(#b);}.s{fill:#00aced;}.t{fill:#90dffb;}.u{fill:#4fc1e9;}.v{font-size:16px;font-family:SegoeUI, Segoe UI;}</style><clipPath id="a"><path class="a" d="M0-2000H418.055v427.817H0Z" transform="translate(0 2000)"/></clipPath><clipPath id="b"><path class="a" d="M1285.744-996.188c-12.553,0-22.824,10.51-22.824,23.357h0c0,12.846,10.271,23.357,22.824,23.357h.808c12.553,0,22.823-10.51,22.823-23.357h0c0-12.846-10.271-23.357-22.823-23.357h-.808Z" transform="translate(-1262.92 996.188)"/></clipPath></defs><g transform="translate(0 2000)"><path class="b" d="M0-1572.183H418.055V-2000H0Z"/><g class="c" transform="translate(0 -2000)"><g transform="translate(63.962 149.234)"><path class="d" d="M-438.507-297.936S-455.177-259.353-462-262.971s21.6-41.622,21.6-41.622-20.764-37.1-33.748-44.463c0,0-3.169,46.9-8.913,41.673s-4.661-54.183-4.661-54.183-27.76-28.412-45.827-12.713-16.3,31.147-12.4,35.669,34.412,25.4,30.927,28.864-28.228-4.473-37.187-16.1c0,0-8.765,40.592,8.809,50.591s29.7,3.142,40.452,9.523,16.323,14.445,9.327,13.666-23-14.829-36.073-13.457-22.715,1.095-9.559,15.087,42,31.326,55.6,23.138l1.7-1.024a7.5,7.5,0,0,1-1.7,1.024c1.693,3.675.525,14.7-.681,22.94-.287,1.345-.6,3.265-.941,5.931h0c-.2,1.173-.371,2.128-.493,2.792-3.889,17.623-22.789,39.483-22.789,39.483l2.668,3.2c23.416-18.957,23.978-47.671,23.978-47.671,2.284-21.477,11.858-34.865,11.858-34.865s40.8,3.846,42.442-28.734c0,0-1.545-21.8-10.9-33.711" transform="translate(554.39 379.009)"/></g><g transform="translate(149.447 83.888)"><path class="e" d="M-567.766-475.753S-587.671-435-607.892-406.87c-8.045,11.2-16.141,20.391-23.05,24.226-6.764,3.753-12.489,9.583-17.227,16.044-12.27,16.729-17.933,37.673-17.933,37.673l-51.705-80.05s1.764-78.25,7.972-91.34c9.048-19.074,13.419-57.614,16.9-65.287,2.579-5.692,9.943-35.093,10.649-37.254.307-.931,2.757-2.359,5.939-2.356,2.553,0,6.889,2.526,7.982,7.716,5.53,26.235-1.126,43.54-1.051,44.309,1.95,20.163-3.913,35.129.2,39.093.153.147.437.077.839-.185,7.128-4.684,51.369-70.688,56.818-72.113,5.756-1.5,43.8,110.64,43.8,110.64" transform="translate(717.807 605.213)"/></g><g transform="translate(83.565 308.001)"><path class="f" d="M-503.818-133.513s-.7,35.573-2.72,83.484H-636.96c29.812-65.058,55.73-119.815,55.73-119.815s74.261,2.321,77.412,36.331" transform="translate(636.96 169.844)"/></g><g transform="translate(293.176 56.178)"><path class="e" d="M-194.95-70.749l-16.012,24.021-15.712,23.573a3.561,3.561,0,0,1-3.266,1.476c-3.771-.366-8.436-5.931-12.071-9.012l-.369-.31a11.794,11.794,0,0,1-1.505-16.3L-219.871-77v0l7.123-8.81a11.165,11.165,0,0,1,15.924-1.541l.369.31a11.8,11.8,0,0,1,1.505,16.3" transform="translate(246.469 90)"/></g><g transform="translate(309.704 69.174)"><path class="e" d="M-71.816-111.263-87.528-87.689a3.561,3.561,0,0,1-3.267,1.476l10.07-55.325c.022.31,1.734,25.134,8.909,30.276" transform="translate(90.795 141.539)"/></g><g transform="translate(195.643 277.307)"><path class="g" d="M-241.119-18.1C-249.164-6.9-257.26,2.3-264.169,6.131c-6.764,3.753-12.489,9.584-17.227,16.044-5.45-2.6-11.662-5.65-17.733-8.67a10.46,10.46,0,0,1-.435-18.4c.071-.039.14-.078.208-.118,6.786-3.974,13.74-18,13.74-18Z" transform="translate(304.838 23.019)"/></g><g transform="translate(180.414 87.462)"><path class="h" d="M-15.853,0l-4.189,17.309s3.662,1.533,6.014.343S-9.757.932-15.853,0" transform="translate(20.042)"/></g><g transform="translate(198.886 54.797)"><path class="i" d="M-401.857-865.855h-90.086a16.351,16.351,0,0,1-16.111-16.488v-202.638a16.351,16.351,0,0,1,16.111-16.487h90.086a16.351,16.351,0,0,1,16.111,16.487v202.638a16.35,16.35,0,0,1-16.111,16.488" transform="translate(508.054 1101.468)"/></g><g transform="translate(204.949 60.637)"><path class="j" d="M-416.942-44.863V153.078a12.065,12.065,0,0,1-11.843,12.208h-86.5a12.063,12.063,0,0,1-11.84-12.208V-44.863a12.063,12.063,0,0,1,11.84-12.208h86.5a12.065,12.065,0,0,1,11.843,12.208" transform="translate(527.126 57.071)"/></g><g transform="translate(204.949 60.637)"><path class="k" d="M-372.129,0l-85.431,222.358h-1.07a12.064,12.064,0,0,1-11.84-12.208V12.208A12.063,12.063,0,0,1-458.63,0Z" transform="translate(470.47)"/></g><g transform="translate(236.61 56.178)"><path class="i" d="M-157.065-43.438h-36.153a5.434,5.434,0,0,1-5.354-5.479v-.861a5.434,5.434,0,0,1,5.354-5.479h36.153a5.434,5.434,0,0,1,5.354,5.479v.861a5.434,5.434,0,0,1-5.354,5.479" transform="translate(198.572 55.258)"/></g><g transform="translate(303.229 143.861)"><path class="e" d="M-126.746-81.88l-2.388.929-16.056,6.244a10.034,10.034,0,0,1-1.138.369A10.913,10.913,0,0,1-159.3-81.193l-.235-.631a11.306,11.306,0,0,1,6.338-14.437l14.969-5.82,1.088-.424,2.388-.929a10.891,10.891,0,0,1,14.105,6.486l.235.631a11.306,11.306,0,0,1-6.338,14.437" transform="translate(160.24 104.161)"/></g><g transform="translate(307.584 153.013)"><path class="l" d="M-60.928-49.634c-2.68,1.039-7.531,2.883-10.125,3.265A4.237,4.237,0,0,1-74.4-48.084a10.19,10.19,0,0,1-2.019-3.727,12.066,12.066,0,0,1-.549-2.379,10.267,10.267,0,0,1,.088-2.829,2.815,2.815,0,0,1,1.532-2.018s.009,0,.012-.006A62.46,62.46,0,0,1-65.6-62.951a4.2,4.2,0,0,1,5.248,2.4l.337.943,1.723,4.83a4.158,4.158,0,0,1-2.635,5.145" transform="translate(77.029 63.14)"/></g><g transform="translate(309.228 155.715)"><path class="h" d="M-54.708-39.7c-2.68,1.039-7.531,2.883-10.125,3.265a4.237,4.237,0,0,1-3.349-1.715c-.135-.321-.258-.661-.376-1.024a12.067,12.067,0,0,1-.549-2.379,10.273,10.273,0,0,1,.088-2.829A2.817,2.817,0,0,1-67.487-46.4s.009,0,.012-.006a62.476,62.476,0,0,1,9.738-3.907,4.529,4.529,0,0,1,3.941.64l1.723,4.83A4.158,4.158,0,0,1-54.708-39.7" transform="translate(69.165 50.506)"/></g><g transform="translate(307.723 173.554)"><path class="e" d="M-82.172-57.657l-12.382,3.45a7.094,7.094,0,0,1-8.7-5.095l-.381-1.434a7.3,7.3,0,0,1,4.978-8.906l12.382-3.45A7.094,7.094,0,0,1-77.575-68l.381,1.434a7.3,7.3,0,0,1-4.978,8.906" transform="translate(103.887 73.347)"/></g><g transform="translate(309.913 178.016)"><path class="l" d="M-48.55-38.974a54.752,54.752,0,0,1-8.541,1.838c-.784.045-2.354-.634-3.378-2.742a8.658,8.658,0,0,1-.634-1.787,8.652,8.652,0,0,1-.276-1.862A7.422,7.422,0,0,1-61.1-45.7a2.222,2.222,0,0,1,1.4-1.448c.006,0,.009,0,.011-.006a54.32,54.32,0,0,1,8.271-2.361,3.489,3.489,0,0,1,4.132,2.189l.32,1.141.954,3.427a3.212,3.212,0,0,1-2.536,3.778" transform="translate(61.38 49.58)"/></g><g transform="translate(310.573 179.919)"><path class="h" d="M-46.051-31.979a54.753,54.753,0,0,1-8.541,1.838c-.784.045-2.354-.634-3.378-2.742a8.255,8.255,0,0,1-.249-1.748,7.43,7.43,0,0,1,.276-2.169,2.228,2.228,0,0,1,1.4-1.448c.006,0,.009,0,.012-.006a54.034,54.034,0,0,1,8.271-2.358,3.7,3.7,0,0,1,3.792,1.427l.954,3.427a3.212,3.212,0,0,1-2.536,3.778" transform="translate(58.221 40.681)"/></g><g transform="translate(126.599 299.255)"><path class="m" d="M0-131.325S25.486-106.345,42.667-96.7l13.008-9.442v13.929s25.583,4.63,33.653,0V-130.2L17.472-167.061Z" transform="translate(0 167.061)"/></g><g transform="translate(117.178 277.307)"><path class="n" d="M-122.113,0S-138.3,24.778-154.384,51.27c0,0,33.9,23.865,52.278,30.865L-78,53.881-81.44,87.892s21.334,7.958,31.232,5.88c0,0-.625-30.854-.618-51.069,0,0-58.648-16.822-71.288-42.7" transform="translate(154.384)"/></g><g transform="translate(153.429 336.118)"><path class="i" d="M0-14.951a4.058,4.058,0,0,1,4.05-4.068,4.063,4.063,0,0,1,3.975,4.144,4.058,4.058,0,0,1-4.049,4.068A4.063,4.063,0,0,1,0-14.951" transform="translate(0.001 19.02)"/></g><g transform="translate(302.02 113.908)"><path class="e" d="M-129.843-102.709c-.088.033-.176.063-.267.093l-16.233,4.265c-7.138,1.877-14.519-2.076-16.4-8.782l-.966-3.436c-1.811-6.439,2.081-13.173,8.714-15.357l5.359-1.409,10.874-2.856c7.138-1.877,14.519,2.076,16.4,8.782l.966,3.436c1.784,6.352-1.978,12.987-8.447,15.264" transform="translate(164.156 130.658)"/></g><g transform="translate(313.665 120.379)"><path class="l" d="M-57.628-61.889l-7.886,3.637-.05.012a8.323,8.323,0,0,1-.954.2c-.132.021-.267.036-.4.051a1.041,1.041,0,0,1-.167,0A1.283,1.283,0,0,1-68.174-59.8a8.2,8.2,0,0,0,.446-5.472l-.188-.7a.061.061,0,0,0-.006-.021l-.61-2.292a8.611,8.611,0,0,0-2.859-4.46c-.161-.135-.329-.261-.5-.382a2.34,2.34,0,0,1,.663-4.127l.05-.015,8.655-1.34c2.139-.595,4.2,1.09,4.784,3.28l.7,2.61,1.479,5.565c.581,2.193.073,4.67-2.066,5.265" transform="translate(72.858 78.73)"/></g><g transform="translate(315.133 123.983)"><path class="h" d="M-52.076-48.645l-7.886,3.637-.05.012c-.185.036-.763.135-1.52.255a1.283,1.283,0,0,1-1.089-1.814,8.2,8.2,0,0,0,.446-5.472l-.188-.7a.061.061,0,0,0-.006-.021l-.61-2.292a8.611,8.611,0,0,0-2.859-4.46,2.2,2.2,0,0,1,1.242-.9c.014-.006.032-.009.05-.015l8.655-1.339a3.913,3.913,0,0,1,4.4,2.286l1.479,5.565c.581,2.193.073,4.67-2.066,5.265" transform="translate(65.838 61.882)"/></g><g transform="translate(188.312 135.914)"><path class="g" d="M-40.009-339.387s-3.541-31.636-6.809-37.8-6.032-18.524-1.005-27.7,6.764-26.845,6.764-26.845c1.95,20.163-3.913,35.129.2,39.093.153.147.437.077.84-.185Z" transform="translate(50.582 431.74)"/></g><g transform="translate(0 275.763)"><path class="d" d="M-388.125-257.505s-6.039-16.891-16.065-24.146c0,0-4.665,34.376-10.862,33.092s7.9-37.922,7.9-37.922-24.622-24.544-36.518-27.366c0,0,7.853,37.833,2.153,35.029S-457.176-320.6-457.176-320.6s-20.778-11.815-33.518-4.691v39.661c9.752,3.95,24.831,9.733,23.37,12.336s-13.336,3-23.37.2v27.624a15.389,15.389,0,0,0,8.541,6.018c16.111,3.844,24.189-4.386,34.1-1.824s16.1,7.649,10.4,8.651-21.473-6.41-31.507-2.3-17.728,6.121-4.229,14.145,40.14,15.065,49.088,5.443l0,0,1.119-1.2.006-.007a6.306,6.306,0,0,1-1.127,1.214c2.151,2.516,3.663,11.512,4.529,18.311.069,1.126.246,2.713.563,4.885.1,1.009.182,1.828.233,2.386a52.483,52.483,0,0,1-1.618,14.229h4.3a56.129,56.129,0,0,0-.738-19.11v0c-2.937-17.518,1.679-30.323,1.679-30.323h0c.073-.014,33.114-6.424,27.227-32.547" transform="translate(490.694 327.577)"/></g><g transform="translate(239.186 299.905)"><path class="d" d="M-528.5-57.752c-5.668-21.418-40.987-14.725-40.987-14.725S-593.467-34.995-600.443-34.1s14.389-36.143,14.389-36.143c-13.517-1.339-47.964,15.618-47.964,15.618s2.18,43.729-4.8,42.836,0-38.821,0-38.821C-651.9-46.6-664.1-30.979-664.1-30.979-679.365-5.545-646.663,13.2-646.663,13.2s.436,15.171-8.72,32.574h0a52.1,52.1,0,0,0-4.167,8.674h3.566q.437-1.468.968-2.833a.022.022,0,0,1,.007-.017c0-.013.011-.026.016-.039.244-.564.6-1.366,1.033-2.344l0,0s0,0,0,0c1.089-2.183,1.826-3.8,2.291-4.959a.04.04,0,0,0,0-.011c3.265-6.851,7.968-15.779,11.1-17.651a7.144,7.144,0,0,1-.763-1.674l.763,1.674c6.1,13.386,36.627,15.617,53.632,12.048s9.593-8.478.436-16.444-28.342-5.866-34.01-8.99,2.616-6.247,13.953-5.355,17.005,12.494,35.319,14.279,32.267-33.466,32.267-33.466c-12.645,4.016-35.319-3.123-36.191-7.586s32.7-4.016,37.935-5.355,14.389-12.048,8.72-33.466" transform="translate(668.162 73.467)"/></g><g transform="translate(199.714 96.535)"><path class="o" d="M-289.509-11.491l-73.954,82.2c-4.558,5.111-2.862,8.421,3.878,7.415l24.468-3.7c.395-.087.8-.151,1.213-.2a2.28,2.28,0,0,0,1.662-1.094l32.98-54.8c7.661-12.821,9.574-11.808,4.192,2.154l-19.583,50.667a2.349,2.349,0,0,0,1.833,3.189c.766.1,1.494.22,2.149.354l44,7.685c6.687,1.208,10.793-3.363,9.075-10.1L-277.893-8.5c-1.841-6.777-6.976-8.143-11.616-2.99" transform="translate(366.017 14.618)"/></g><g transform="translate(233.461 120.444)"><path class="p" d="M-81.27-240.147c-.682-.114-1.395-.212-2.136-.305a2.352,2.352,0,0,1-1.863-3.194l19.6-50.71c5.382-13.962,3.591-14.932-4.192-2.154l-32.545,54.171a2.389,2.389,0,0,0,.319,2.876l20.17,20.991c3.125,3.317,7.089,2.463,8.663-1.872L-67.761-235a2.352,2.352,0,0,0-1.766-3.157Z" transform="translate(102.747 305.495)"/></g><g transform="translate(251.199 185.648)"><path class="q" d="M-44.63-73.607l5.5-14.656A2.352,2.352,0,0,0-40.9-91.419l-11.87-2.032q-.517-.087-1.059-.162a2.336,2.336,0,0,0-2.4,3.283l7.341,16.875a2.269,2.269,0,0,0,4.234-.1l.018-.052" transform="translate(56.424 93.636)"/></g></g><g class="r" transform="translate(263.985 -1785.276)"><g transform="translate(-263.985 -214.724)"><path class="i" d="M0-2000H418.055v427.817H0Z" transform="translate(0 2000)"/></g></g><g class="c" transform="translate(0 -2000)"><g transform="translate(263.174 213.908)"><path class="s" d="M-40.189-5.992a9.035,9.035,0,0,0-9,9.049V30.042a9.035,9.035,0,0,0,9,9.049h26.835a9.035,9.035,0,0,0,9-9.049V3.058a9.035,9.035,0,0,0-9-9.049Zm26.835,46.714H-40.189A10.663,10.663,0,0,1-50.81,30.042V3.058A10.662,10.662,0,0,1-40.189-7.622h26.835A10.662,10.662,0,0,1-2.734,3.058V30.042a10.662,10.662,0,0,1-10.62,10.68" transform="translate(50.81 7.622)"/></g><g transform="translate(277.078 224.343)"><path class="t" d="M0,0V27.066L23.065,13.533Z"/></g><g transform="translate(210.761 74.183)"><path class="u" d="M-85.9,0c-12.542,0-22.7,10.4-22.7,23.23s10.159,23.23,22.7,23.23,22.7-10.4,22.7-23.23A22.951,22.951,0,0,0-85.9,0" transform="translate(108.6)"/></g><g transform="translate(222.529 99.671)"><path class="o" d="M-41.368-10.824-44.19-13.77-52.3-5.552a1.523,1.523,0,0,0,1.129.52h19.628a1.522,1.522,0,0,0,1.129-.52L-38.5-13.77Z" transform="translate(52.3 13.77)"/></g><g transform="translate(222.529 89.029)"><path class="o" d="M-82.815-1.91a1.523,1.523,0,0,0-1.129-.52h-19.628a1.464,1.464,0,0,0-1.129.545L-93.768,9.228Z" transform="translate(104.7 2.43)"/></g><g transform="translate(222.007 90.736)"><path class="o" d="M0,0V16.113l7.922-7.97Z"/></g><g transform="translate(237.015 90.736)"><path class="o" d="M0-29.925l7.922,7.97V-38.068Z" transform="translate(0 38.068)"/></g></g></g><text class="v" transform="translate(342.527 19)"><tspan x="0" y="17">Skip</tspan></text></svg>