<svg xmlns="http://www.w3.org/2000/svg" width="416" height="432" viewBox="0 0 416 432"><defs><style>.a{fill:#ebf3fa;}.b{fill:rgba(163,55,237,0.1);}.c{fill:#f8b88b;}.d{fill:rgba(249,11,11,0.62);}.e{fill:#e5a27c;}.f{fill:#ffc197;}.g,.v{fill:#2c35b9;}.h{fill:#c0d8fb;}.i{fill:#cbe1fd;}.j{fill:#ffd3b6;}.k{fill:#6d70a4;}.l{fill:#f3f8ff;}.m{fill:rgba(163,55,237,0.2);}.n{fill:#9ec3f6;}.o{fill:#fff;}.p{fill:#dfebfc;}.q{fill:#9abff6;}.r{fill:#699dee;}.s{fill:#f99746;}.t{fill:#ed7d2b;}.u{fill:#2b478b;}.v{font-size:16px;font-family:SegoeUI, Segoe UI;}</style></defs><g transform="translate(0 0.779)"><rect class="a" width="416" height="432" transform="translate(0 -0.779)"/><g transform="translate(0 55.249)"><path class="b" d="M421.177,779.372s-16.568,38.888-23.349,35.242S419.3,772.663,419.3,772.663s-20.638-37.4-33.543-44.815c0,0-3.149,47.268-8.858,42s-4.633-54.612-4.633-54.612-27.591-28.636-45.547-12.813-16.2,31.394-12.322,35.952,34.2,25.6,30.739,29.093-28.055-4.508-36.959-16.23c0,0-8.711,40.915,8.755,50.992s29.519,3.167,40.2,9.6,16.223,14.56,9.27,13.773-22.865-14.948-35.851-13.564-22.576,1.1-9.5,15.206,41.741,31.575,55.255,23.322L378,849.535a7.487,7.487,0,0,1-1.691,1.033c1.683,3.7.521,14.816-.677,23.121-.285,1.356-.6,3.29-.935,5.979h0c-.2,1.182-.37,2.145-.49,2.814-3.866,17.763-22.649,39.8-22.649,39.8l2.651,3.228c23.272-19.107,23.831-48.049,23.831-48.049,2.271-21.646,11.786-35.141,11.786-35.141s40.547,3.877,42.184-28.962C432.007,813.351,430.47,791.375,421.177,779.372Z" transform="translate(-242.431 -602.474)"/><path class="c" d="M864.093,522.662s-19.784,41.074-39.882,69.428c-8,11.284-16.042,20.553-22.909,24.419-6.723,3.782-12.413,9.659-17.121,16.172-12.195,16.862-17.823,37.972-17.823,37.972L714.97,589.968s1.753-78.869,7.924-92.062c8.993-19.225,13.338-58.07,16.792-65.8,2.564-5.737,9.883-35.371,10.585-37.549.305-.938,2.74-2.378,5.9-2.374,2.539,0,6.847,2.546,7.934,7.777,5.495,26.443-1.12,43.883-1.045,44.66,1.938,20.323-3.889,35.408.2,39.4.152.149.434.078.835-.188,7.084-4.722,51.055-71.248,56.471-72.683C826.282,409.633,864.093,522.662,864.093,522.662Z" transform="translate(-566.435 -362.856)"/><path class="d" d="M532.108,1476.5s-.7,35.854-2.7,84.145H399.78c29.629-65.573,55.39-120.762,55.39-120.762S528.978,1442.219,532.108,1476.5Z" transform="translate(-316.726 -1184.671)"/><path class="c" d="M1453.775,282.043l-15.914,24.212-15.617,23.759A3.52,3.52,0,0,1,1419,331.5c-3.748-.369-8.385-5.979-12-9.083l-.366-.313a12,12,0,0,1-1.5-16.424l23.868-29.943v0l7.08-8.878a10.992,10.992,0,0,1,15.826-1.552l.366.313A12.006,12.006,0,0,1,1453.775,282.043Z" transform="translate(-1111.187 -261.246)"/><path class="c" d="M1500.5,353.9l-15.617,23.759a3.52,3.52,0,0,1-3.247,1.488l10.007-55.763C1491.67,323.693,1493.372,348.713,1500.5,353.9Z" transform="translate(-1173.829 -308.889)"/><path class="e" d="M999.3,1301.351c-8,11.285-16.042,20.553-22.909,24.419-6.723,3.782-12.413,9.659-17.121,16.172-5.416-2.62-11.59-5.694-17.625-8.738-7.348-3.706-7.631-14.536-.432-18.548.071-.039.139-.08.208-.119,6.746-4.006,13.655-18.147,13.655-18.147Z" transform="translate(-741.52 -1072.117)"/><path class="f" d="M867.273,408.87l-4.163,17.446s3.64,1.546,5.977.345S873.333,409.81,867.273,408.87Z" transform="translate(-683.799 -375.948)"/><g transform="translate(197.67)"><path class="g" d="M1057.03,493.648H967.493c-8.807,0-16.013-7.477-16.013-16.619V272.789c0-9.139,7.2-16.619,16.013-16.619h89.536c8.807,0,16.013,7.477,16.013,16.619V477.03C1073.041,486.169,1065.836,493.648,1057.03,493.648Z" transform="translate(-951.48 -256.17)"/><g transform="translate(6.023 5.886)"><path class="h" d="M1089.983,295.774V495.283c0,6.768-5.3,12.3-11.771,12.3H992.239c-6.471,0-11.769-5.537-11.769-12.3V295.774c0-6.768,5.3-12.3,11.769-12.3h85.973C1084.686,283.47,1089.983,289.007,1089.983,295.774Z" transform="translate(-980.47 -283.47)"/><path class="i" d="M1078.222,283.47,993.313,507.587h-1.064c-6.471,0-11.769-5.537-11.769-12.3V295.774c0-6.768,5.3-12.3,11.769-12.3Z" transform="translate(-980.478 -283.47)"/></g><path class="g" d="M1173.205,274.526h-35.932A5.442,5.442,0,0,1,1131.95,269v-.869a5.442,5.442,0,0,1,5.323-5.524h35.932a5.442,5.442,0,0,1,5.323,5.524V269A5.442,5.442,0,0,1,1173.205,274.526Z" transform="translate(-1094.457 -261.222)"/></g><g transform="translate(301.376 89.771)"><path class="c" d="M1483.955,695l-2.372.936-15.959,6.293a10.211,10.211,0,0,1-1.13.373,10.818,10.818,0,0,1-12.889-6.91l-.235-.636a11.446,11.446,0,0,1,6.3-14.551l14.877-5.867,1.08-.427,2.373-.936a10.782,10.782,0,0,1,14.019,6.537l.235.636A11.445,11.445,0,0,1,1483.955,695Z" transform="translate(-1450.664 -672.544)"/><path class="j" d="M1487.5,728.922c-2.663,1.048-7.485,2.906-10.063,3.29a4.182,4.182,0,0,1-3.328-1.729,10.323,10.323,0,0,1-2.007-3.756,12.265,12.265,0,0,1-.546-2.4,10.493,10.493,0,0,1,.087-2.852,2.835,2.835,0,0,1,1.523-2.035s.008,0,.012-.006a61.847,61.847,0,0,1,9.679-3.939,4.16,4.16,0,0,1,5.217,2.419l.334.951,1.712,4.868A4.207,4.207,0,0,1,1487.5,728.922Z" transform="translate(-1467.17 -706.087)"/><path class="f" d="M1493.729,738.828c-2.663,1.048-7.485,2.906-10.063,3.29a4.183,4.183,0,0,1-3.328-1.729c-.135-.323-.258-.666-.374-1.033a12.247,12.247,0,0,1-.546-2.4,10.493,10.493,0,0,1,.087-2.852,2.836,2.836,0,0,1,1.523-2.035s.008,0,.012-.006a61.85,61.85,0,0,1,9.679-3.939,4.45,4.45,0,0,1,3.918.645l1.712,4.868A4.209,4.209,0,0,1,1493.729,738.828Z" transform="translate(-1473.397 -715.992)"/></g><g transform="translate(305.84 119.696)"><path class="c" d="M1493.738,827.156l-12.307,3.478a7.043,7.043,0,0,1-8.651-5.136l-.38-1.445a7.371,7.371,0,0,1,4.949-8.978l12.307-3.478a7.043,7.043,0,0,1,8.651,5.136l.38,1.445A7.369,7.369,0,0,1,1493.738,827.156Z" transform="translate(-1472.153 -811.343)"/><path class="j" d="M1495.394,842.887a53.635,53.635,0,0,1-8.489,1.852c-.779.045-2.339-.638-3.357-2.764a9.954,9.954,0,0,1-.9-3.678,7.624,7.624,0,0,1,.274-2.186,2.23,2.23,0,0,1,1.392-1.46.023.023,0,0,0,.012-.006,53.392,53.392,0,0,1,8.221-2.38,3.46,3.46,0,0,1,4.107,2.208l.318,1.151.947,3.454A3.24,3.24,0,0,1,1495.394,842.887Z" transform="translate(-1480.464 -827.699)"/><path class="f" d="M1497.9,849.875a53.635,53.635,0,0,1-8.489,1.852c-.779.045-2.339-.638-3.357-2.764a8.349,8.349,0,0,1-.247-1.761,7.561,7.561,0,0,1,.274-2.186,2.235,2.235,0,0,1,1.392-1.46.025.025,0,0,0,.013-.006,52.893,52.893,0,0,1,8.221-2.376,3.649,3.649,0,0,1,3.769,1.438l.947,3.454A3.24,3.24,0,0,1,1497.9,849.875Z" transform="translate(-1482.967 -834.687)"/></g><path class="k" d="M605.66,1435.016s25.331,25.178,42.406,34.9l12.928-9.517v14.04s25.427,4.666,33.448,0v-38.284L623.026,1399Z" transform="translate(-479.834 -1152.605)"/><path class="l" d="M592.662,1296.38s-16.086,24.973-32.072,51.675c0,0,33.693,24.055,51.958,31.109l23.96-28.477-3.42,34.281s21.2,8.02,31.042,5.927c0,0-.621-31.1-.615-51.472C663.513,1339.42,605.225,1322.466,592.662,1296.38Z" transform="translate(-444.127 -1072.109)"/><path class="g" d="M734.009,1575.42a3.991,3.991,0,1,1,3.951,4.176A4.062,4.062,0,0,1,734.009,1575.42Z" transform="translate(-581.519 -1287.772)"/><g transform="translate(300.173 59.58)"><path class="c" d="M1478.982,560.684c-.087.032-.175.063-.266.095l-16.134,4.3c-7.095,1.893-14.43-2.091-16.3-8.853l-.96-3.463a12.9,12.9,0,0,1,8.661-15.478l5.327-1.421,10.807-2.878c7.095-1.893,14.43,2.091,16.3,8.853l.96,3.463A12.88,12.88,0,0,1,1478.982,560.684Z" transform="translate(-1444.878 -532.515)"/><path class="j" d="M1515.715,579.739l-7.838,3.665c-.012,0-.027.006-.05.013a7.917,7.917,0,0,1-.947.2c-.131.022-.266.037-.4.052a.864.864,0,0,1-.166,0,1.293,1.293,0,0,1-1.082-1.828,8.352,8.352,0,0,0,.443-5.515l-.187-.709a.043.043,0,0,0-.006-.021l-.607-2.309a8.7,8.7,0,0,0-2.842-4.5c-.16-.136-.326-.263-.5-.384a2.371,2.371,0,0,1,.659-4.159c.017-.007.031-.009.05-.015l8.6-1.35c2.127-.6,4.174,1.1,4.755,3.305l.692,2.63,1.471,5.61C1518.348,576.641,1517.843,579.14,1515.715,579.739Z" transform="translate(-1489.005 -556.244)"/><path class="f" d="M1521.28,592.949l-7.839,3.665c-.012,0-.027.006-.05.013-.183.037-.758.136-1.51.257a1.293,1.293,0,0,1-1.082-1.828,8.352,8.352,0,0,0,.443-5.515l-.187-.709a.043.043,0,0,0-.006-.022l-.607-2.309a8.7,8.7,0,0,0-2.842-4.5,2.191,2.191,0,0,1,1.234-.912c.015-.007.031-.009.05-.015l8.6-1.35a3.877,3.877,0,0,1,4.375,2.3l1.471,5.61C1523.912,589.851,1523.408,592.35,1521.28,592.949Z" transform="translate(-1494.569 -569.454)"/></g><path class="e" d="M911.409,728.464s-3.519-31.887-6.766-38.1-6-18.671-1-27.922,6.723-27.058,6.723-27.058c1.938,20.323-3.889,35.408.2,39.4.152.149.434.078.835-.188Z" transform="translate(-713.739 -553.622)"/><path class="m" d="M101.941,1359.789s-6-17.024-15.968-24.337c0,0-4.637,34.649-10.795,33.353s7.849-38.222,7.849-38.222S58.556,1305.846,46.733,1303c0,0,7.805,38.133,2.14,35.3s-15.558-42.113-15.558-42.113S12.662,1284.286,0,1291.465v39.975c9.692,3.982,24.679,9.81,23.226,12.434s-13.254,3.021-23.226.2v27.843a15.306,15.306,0,0,0,8.489,6.065c16.013,3.874,24.041-4.422,33.894-1.839s16,7.71,10.333,8.719-21.342-6.459-31.314-2.318-17.619,6.168-4.2,14.258,39.894,15.185,48.788,5.485l0,0q.583-.634,1.111-1.214l.006-.007a6.253,6.253,0,0,1-1.12,1.222c2.138,2.536,3.642,11.6,4.5,18.456.069,1.134.245,2.734.559,4.924.1,1.018.181,1.841.231,2.406a53.624,53.624,0,0,1-1.608,14.342h4.273a57.357,57.357,0,0,0-.733-19.262v0c-2.919-17.656,1.668-30.564,1.668-30.564h0C74.954,1392.58,107.793,1386.12,101.941,1359.789Z" transform="translate(0 -1066.449)"/><path class="m" d="M1283.088,1417.861c-5.634-21.588-40.736-14.842-40.736-14.842s-23.835,37.778-30.77,38.679,14.3-36.43,14.3-36.43c-13.435-1.35-47.67,15.741-47.67,15.741s2.167,44.075-4.768,43.176,0-39.127,0-39.127c-13,4.047-25.136,19.79-25.136,19.79-15.168,25.635,17.335,44.524,17.335,44.524s.434,15.29-8.667,32.832h0a52.765,52.765,0,0,0-4.142,8.743h3.544q.433-1.481.962-2.855a.03.03,0,0,1,.006-.017.31.31,0,0,1,.017-.039c.243-.569.592-1.378,1.026-2.363,0,0,0,0,0,0s0,0,0,0c1.082-2.2,1.814-3.825,2.277-5,0,0,0-.006,0-.011,3.245-6.906,7.919-15.9,11.036-17.791a7.236,7.236,0,0,1-.758-1.688c.241.539.495,1.1.758,1.688,6.066,13.492,36.4,15.741,53.3,12.143s9.534-8.544.432-16.576-28.169-5.912-33.8-9.062,2.6-6.3,13.867-5.4,16.9,12.593,35.1,14.391,32.068-33.731,32.068-33.731c-12.567,4.047-35.1-3.148-35.97-7.645s32.5-4.047,37.7-5.4S1288.722,1439.45,1283.088,1417.861Z" transform="translate(-906.554 -1154.975)"/></g><g transform="translate(337.257 207.785)"><path class="n" d="M1733.37,1016.264l37.752,12.809-22.614-22.873-2.3,5.588-9.719.05Z" transform="translate(-1710.519 -997.028)"/><path class="o" d="M1683.983,1001.141l-29.3-23.132-31.3-7.419Z" transform="translate(-1623.38 -969.096)"/><path class="o" d="M1806.24,972.832l22.614,22.873-15.074-32.045Z" transform="translate(-1768.251 -963.66)"/></g><g transform="translate(290.615 16.551)"><path class="p" d="M1699.049,176.388H1682.7a8,8,0,0,1-7.82-8.116V154.3a8,8,0,0,1,7.82-8.116h16.349a8,8,0,0,1,7.82,8.116v13.976A8,8,0,0,1,1699.049,176.388Z" transform="translate(-1674.88 -146.18)"/><g transform="translate(7.18 8.338)"><path class="d" d="M1717.548,200.093c.888,2.43,8.505,8.812,8.505,8.812s2.482-2.094,4.782-4.347c1.721-1.668,3.329-3.425,3.709-4.465.9-2.416-.056-5.871-3.385-6.455-3.314-.586-5.106,3.015-5.106,3.015s-1.792-3.6-5.12-3.015a4.412,4.412,0,0,0-1.524.556A4.921,4.921,0,0,0,1717.548,200.093Z" transform="translate(-1717.234 -193.574)"/></g></g><g transform="translate(207.75 250.241)"><path class="q" d="M1063.2,1188.809h-55.457a7.89,7.89,0,0,1-7.739-8.031v-12.166a7.89,7.89,0,0,1,7.739-8.031H1063.2a7.89,7.89,0,0,1,7.739,8.031v12.166A7.89,7.89,0,0,1,1063.2,1188.809Z" transform="translate(-1000 -1160.58)"/></g><g transform="translate(215.605 255.638)"><path class="r" d="M1055.02,1188.242h-16.19a1.043,1.043,0,0,1-1.02-1.059v-.5a1.043,1.043,0,0,1,1.02-1.059h16.19a1.043,1.043,0,0,1,1.02,1.059v.5A1.04,1.04,0,0,1,1055.02,1188.242Z" transform="translate(-1037.81 -1185.618)"/><g transform="translate(0 7.628)"><path class="r" d="M1055.217,1222.7h-16.583a.844.844,0,0,1-.825-.856h0a.844.844,0,0,1,.825-.856h16.583a.843.843,0,0,1,.825.856h0A.843.843,0,0,1,1055.217,1222.7Z" transform="translate(-1037.81 -1220.99)"/><path class="r" d="M1047.875,1241.472h-9.434a.646.646,0,0,1-.631-.655v-.4a.646.646,0,0,1,.631-.655h9.434a.646.646,0,0,1,.632.655v.4A.643.643,0,0,1,1047.875,1241.472Z" transform="translate(-1037.81 -1235.713)"/><path class="r" d="M1117.666,1241.479h-15.245a.808.808,0,0,1-.792-.821v-.067a.809.809,0,0,1,.792-.821h15.245a.808.808,0,0,1,.792.821v.067A.809.809,0,0,1,1117.666,1241.479Z" transform="translate(-1088.371 -1235.721)"/><path class="r" d="M1161.318,1222.7h-21.743a.844.844,0,0,1-.825-.856h0a.844.844,0,0,1,.825-.856h21.743a.843.843,0,0,1,.825.856h0A.844.844,0,0,1,1161.318,1222.7Z" transform="translate(-1117.78 -1220.99)"/><path class="r" d="M1055.217,1260.252h-16.583a.844.844,0,0,1-.825-.856h0a.844.844,0,0,1,.825-.856h16.583a.844.844,0,0,1,.825.856h0A.844.844,0,0,1,1055.217,1260.252Z" transform="translate(-1037.81 -1250.444)"/><path class="r" d="M1161.318,1260.252h-21.743a.844.844,0,0,1-.825-.856h0a.844.844,0,0,1,.825-.856h21.743a.844.844,0,0,1,.825.856h0A.846.846,0,0,1,1161.318,1260.252Z" transform="translate(-1117.78 -1250.444)"/></g><path class="r" d="M1148.932,1188.234H1137.3a.894.894,0,0,1-.875-.908v-.808a.894.894,0,0,1,.875-.908h11.628a.894.894,0,0,1,.875.908v.808A.9.9,0,0,1,1148.932,1188.234Z" transform="translate(-1115.942 -1185.61)"/></g><path class="o" d="M1394.62,1199.005a8.394,8.394,0,0,0,1.645,5.019,8.173,8.173,0,0,0,1.157,1.259,7.7,7.7,0,0,0,9.858.321,8.112,8.112,0,0,0,1.548-1.58,8.384,8.384,0,0,0,1.645-5.019,7.932,7.932,0,1,0-15.853,0Z" transform="translate(-1104.888 -934.028)"/><path class="s" d="M1417.284,1212.581a.288.288,0,0,0-.039-.063.641.641,0,0,0-.127-.136l0,0a1.575,1.575,0,0,0-.391-.226l-.017-.007a6.191,6.191,0,0,0-1.591-.414c-.258-.041-.461-.067-.557-.078a4.025,4.025,0,0,1-.681-2.456l0,0s.3-.716.69-.492c.613.347,1.8-1.059,1.419-2.906a5.259,5.259,0,0,0-.145-.548,1.061,1.061,0,0,0,.407.1c.355,0,.893-.944.966-1.261s-.006-1.358-.494-1.667-1.23.045-1.263.058c.243-.354,1.074-.283,1.226-.265-1.94-.418-2.341.873-2.375.99-1.234-1.158-3.118.843-3.582,1.378q-.047.042-.094.091a1.356,1.356,0,0,0-.349.323,1.7,1.7,0,0,0-.32,1.069,3.913,3.913,0,0,0,.245,1.279c.112,1.119.424,2.505.922,2.546,0,0,.177,0,.443-.021,0,.013,0,.024,0,.037.008.188.015.4.017.61v.127c0,.563-.031,1.1-.154,1.164-.042,0-.077.006-.108.011-.05,0-.143.015-.143.015-.432.058-.74.1-.958.142a1.236,1.236,0,0,0-.646.216.942.942,0,0,0-.075.082,5.1,5.1,0,0,0-1.4,1.91,7.7,7.7,0,0,0,9.858.321A11.251,11.251,0,0,0,1417.284,1212.581Z" transform="translate(-1115.575 -942.942)"/><g transform="translate(233.864 195.362)"><path class="s" d="M1187.362,946.556H1134.97a9.449,9.449,0,0,1-9.27-9.62V915.66a9.449,9.449,0,0,1,9.27-9.62h52.392a9.449,9.449,0,0,1,9.27,9.62v21.275A9.451,9.451,0,0,1,1187.362,946.556Z" transform="translate(-1125.7 -906.04)"/></g><g transform="translate(242.047 202.785)"><path class="t" d="M1183.941,943.352h-17.723a1.142,1.142,0,0,1-1.118-1.16v-.552a1.142,1.142,0,0,1,1.118-1.16h17.723a1.142,1.142,0,0,1,1.118,1.16v.552A1.142,1.142,0,0,1,1183.941,943.352Z" transform="translate(-1165.098 -940.478)"/><g transform="translate(0 8.357)"><path class="t" d="M1184.157,981.1H1166a.921.921,0,0,1-.9-.936h0a.921.921,0,0,1,.9-.936h18.155a.921.921,0,0,1,.9.936h0A.922.922,0,0,1,1184.157,981.1Z" transform="translate(-1165.098 -979.23)"/><path class="t" d="M1176.111,1001.644h-10.329a.708.708,0,0,1-.692-.718v-.438a.708.708,0,0,1,.692-.718h10.329a.708.708,0,0,1,.692.718v.438A.708.708,0,0,1,1176.111,1001.644Z" transform="translate(-1165.09 -995.341)"/><path class="t" d="M1252.517,1001.651h-16.691a.887.887,0,0,1-.866-.9v-.073a.887.887,0,0,1,.866-.9h16.691a.887.887,0,0,1,.866.9v.073A.885.885,0,0,1,1252.517,1001.651Z" transform="translate(-1220.444 -995.349)"/><path class="t" d="M1300.316,981.1h-23.8a.921.921,0,0,1-.9-.936h0a.921.921,0,0,1,.9-.936h23.8a.921.921,0,0,1,.9.936h0A.922.922,0,0,1,1300.316,981.1Z" transform="translate(-1252.65 -979.23)"/><path class="t" d="M1184.157,1022.211H1166a.921.921,0,0,1-.9-.936h0a.921.921,0,0,1,.9-.936h18.155a.921.921,0,0,1,.9.936h0A.922.922,0,0,1,1184.157,1022.211Z" transform="translate(-1165.098 -1011.477)"/><path class="t" d="M1300.316,1022.211h-23.8a.921.921,0,0,1-.9-.936h0a.921.921,0,0,1,.9-.936h23.8a.921.921,0,0,1,.9.936h0A.922.922,0,0,1,1300.316,1022.211Z" transform="translate(-1252.65 -1011.477)"/></g><g transform="translate(0.002 21.832)"><path class="t" d="M1184.157,1043.6H1166a.921.921,0,0,1-.9-.936h0a.921.921,0,0,1,.9-.936h18.155a.921.921,0,0,1,.9.936h0A.921.921,0,0,1,1184.157,1043.6Z" transform="translate(-1165.1 -1041.73)"/><path class="t" d="M1300.316,1043.6h-23.8a.921.921,0,0,1-.9-.936h0a.921.921,0,0,1,.9-.936h23.8a.921.921,0,0,1,.9.936h0A.921.921,0,0,1,1300.316,1043.6Z" transform="translate(-1252.652 -1041.73)"/></g><path class="t" d="M1286.749,943.344h-12.731a.979.979,0,0,1-.958-.994v-.886a.979.979,0,0,1,.958-.994h12.731a.979.979,0,0,1,.958.994v.886A.978.978,0,0,1,1286.749,943.344Z" transform="translate(-1250.629 -940.47)"/></g><path class="o" d="M1014.48,962.607a8.312,8.312,0,0,0,1.635,4.983,8.077,8.077,0,0,0,1.151,1.25,7.83,7.83,0,0,0,1.371.97,7.631,7.631,0,0,0,8.229-.507c.064-.045.129-.095.191-.142a8.053,8.053,0,0,0,1.535-1.57,8.322,8.322,0,0,0,1.635-4.982,7.879,7.879,0,1,0-15.747,0Z" transform="translate(-803.722 -748.643)"/><path class="r" d="M1037.225,977.073l-.725-.666c-.06.013-.12.024-.181.035a4.909,4.909,0,0,0-.424-.274c.048-.3.087-.586.12-.836a13.96,13.96,0,0,0,.123-1.485,6.285,6.285,0,0,0,.644-.062c.727-.175.762-2.751.594-4.094a.9.9,0,0,0,.405-.08c.551-.252.582-1.117.582-1.117a1,1,0,0,1-.395.408s.92-1.309-.147-2.2-2.15-.31-2.769-.272c-1.359.086-2.238.17-2.68,1.1a5.311,5.311,0,0,0,.573,4.353c.015.086.029.17.039.257a1.76,1.76,0,0,0,.332.821,5.874,5.874,0,0,1-1.005,2.428,3.727,3.727,0,0,0-.723.808l-.015.011.006,0a8.332,8.332,0,0,0-1.016,2.313s0,.009,0,.013a7.388,7.388,0,0,0,1.436.819l.1.043c.008,0,.015.007.023.009.054.024.11.045.164.067.133.054.266.1.4.149s.285.091.428.129c.067.017.133.034.2.05s.116.028.177.039l.025.007.118.024c.091.017.185.034.278.05l.064.009c.052.009.1.015.154.022l.218.026c.081.009.164.015.247.019s.156.011.235.013.164,0,.247,0,.177,0,.266,0a.083.083,0,0,0,.023,0c.021,0,.044,0,.064,0q.066,0,.131-.006a.045.045,0,0,1,.017,0c.083,0,.164-.011.247-.019a7.617,7.617,0,0,0,2.967-.931A8.516,8.516,0,0,0,1037.225,977.073Z" transform="translate(-816.461 -757.868)"/><path class="r" d="M757.034,625.7h78.353a7.874,7.874,0,0,0,7.724-8.016V588.216a7.874,7.874,0,0,0-7.724-8.016H757.034a7.874,7.874,0,0,0-7.724,8.016v29.471A7.874,7.874,0,0,0,757.034,625.7Z" transform="translate(-593.641 -455.089)"/><path class="o" d="M819.164,626.445a14.386,14.386,0,0,1-2.821,8.6,13.941,13.941,0,0,1-1.986,2.158,13.208,13.208,0,0,1-16.9.55,13.865,13.865,0,0,1-2.653-2.708,14.381,14.381,0,0,1-2.821-8.6,13.6,13.6,0,1,1,27.184,0Z" transform="translate(-627.446 -480.3)"/><path class="u" d="M836.8,655.033c-.037-.043-.073-.082-.106-.119a1.839,1.839,0,0,0-.941-.315c-.32-.056-.762-.121-1.394-.207,0,0-.135-.015-.208-.022l-.158-.015c-.181-.1-.227-.873-.224-1.692,0-.06,0-.123,0-.183,0-.31.012-.614.025-.89,0-.017,0-.035,0-.052.388.034.646.03.646.03.723-.06,1.176-2.074,1.338-3.7a5.667,5.667,0,0,0,.357-1.859,2.462,2.462,0,0,0-.465-1.554,2.019,2.019,0,0,0-.509-.474c-.046-.047-.091-.088-.137-.129-.673-.776-3.411-3.685-5.208-2-.046-.168-.632-2.057-3.465-1.438.177-.019,1.433-.142,1.795.386-.05-.022-1.147-.528-1.839-.086a1.744,1.744,0,0,0-.632,1.063.013.013,0,0,0,0,.009s0,0,0,.006v0a.028.028,0,0,0,0,.013c-.012.06-.027.121-.039.179,0,.009,0,.017-.006.028s0,0,0,.006v0a3.131,3.131,0,0,0-.033,1.115c.106.461.887,1.833,1.406,1.833a1.5,1.5,0,0,0,.592-.151,7.161,7.161,0,0,0-.212.8c-.551,2.689,1.17,4.73,2.063,4.224.571-.323,1,.716,1,.716l0,0c-.085,1.966-.6,3.249-.991,3.57-.137.015-.436.054-.81.116v0a9.074,9.074,0,0,0-2.314.6.216.216,0,0,0-.025.011,2.3,2.3,0,0,0-.567.328s0,0,0,0v0a.808.808,0,0,0-.183.2.432.432,0,0,0-.058.088,16.386,16.386,0,0,0-.993,2.818,11.2,11.2,0,0,0,14.335-.468A7.4,7.4,0,0,0,836.8,655.033Z" transform="translate(-653.21 -502.22)"/><path class="o" d="M979.14,635.7H964.165a1.232,1.232,0,0,1-1.2-1.25h0a1.232,1.232,0,0,1,1.2-1.25H979.14a1.232,1.232,0,0,1,1.2,1.25h0A1.232,1.232,0,0,1,979.14,635.7Z" transform="translate(-762.905 -496.663)"/><g transform="translate(200.053 146.403)"><path class="o" d="M979.549,680.59H963.735a.8.8,0,0,1-.785-.815h0a.8.8,0,0,1,.785-.815h15.814a.8.8,0,0,1,.785.815h0A.8.8,0,0,1,979.549,680.59Z" transform="translate(-962.95 -678.96)"/><path class="o" d="M972.365,698.49h-8.63a.8.8,0,0,1-.785-.815h0a.8.8,0,0,1,.785-.815h8.63a.8.8,0,0,1,.785.815h0A.8.8,0,0,1,972.365,698.49Z" transform="translate(-962.95 -693.001)"/><path class="o" d="M1039.063,698.49h-14.478a.8.8,0,0,1-.785-.815h0a.8.8,0,0,1,.785-.815h14.478a.8.8,0,0,1,.785.815h0A.8.8,0,0,1,1039.063,698.49Z" transform="translate(-1011.158 -693.001)"/><path class="o" d="M1080.731,680.59H1060a.8.8,0,0,1-.785-.815h0a.8.8,0,0,1,.785-.815h20.736a.8.8,0,0,1,.785.815h0A.8.8,0,0,1,1080.731,680.59Z" transform="translate(-1039.212 -678.96)"/><path class="o" d="M979.549,716.4H963.735a.8.8,0,0,1-.785-.815h0a.8.8,0,0,1,.785-.815h15.814a.8.8,0,0,1,.785.815h0A.8.8,0,0,1,979.549,716.4Z" transform="translate(-962.95 -707.049)"/><path class="o" d="M1080.731,716.4H1060a.8.8,0,0,1-.785-.815h0a.8.8,0,0,1,.785-.815h20.736a.8.8,0,0,1,.785.815h0A.8.8,0,0,1,1080.731,716.4Z" transform="translate(-1039.212 -707.049)"/></g><g transform="translate(207.212 76.736)"><path class="q" d="M1051.974,378.707h-48.1A6.587,6.587,0,0,1,997.41,372v-9.467a6.587,6.587,0,0,1,6.461-6.705h48.1a6.587,6.587,0,0,1,6.461,6.705V372A6.586,6.586,0,0,1,1051.974,378.707Z" transform="translate(-997.41 -355.83)"/></g><g transform="translate(215.065 81.145)"><path class="r" d="M1052.43,378.912h-16.19a1.043,1.043,0,0,1-1.02-1.059v-.5a1.043,1.043,0,0,1,1.02-1.059h16.19a1.043,1.043,0,0,1,1.02,1.059v.5A1.043,1.043,0,0,1,1052.43,378.912Z" transform="translate(-1035.218 -376.288)"/><g transform="translate(0 7.628)"><path class="r" d="M1052.617,413.372h-16.583a.844.844,0,0,1-.825-.856h0a.844.844,0,0,1,.825-.856h16.583a.844.844,0,0,1,.825.856h0A.841.841,0,0,1,1052.617,413.372Z" transform="translate(-1035.21 -411.66)"/><path class="r" d="M1045.285,432.152h-9.434a.646.646,0,0,1-.632-.655v-.4a.646.646,0,0,1,.632-.655h9.434a.646.646,0,0,1,.632.655v.4A.646.646,0,0,1,1045.285,432.152Z" transform="translate(-1035.218 -426.391)"/><path class="r" d="M1115.066,432.16h-15.245a.808.808,0,0,1-.792-.821v-.067a.808.808,0,0,1,.792-.821h15.245a.808.808,0,0,1,.792.821v.067A.809.809,0,0,1,1115.066,432.16Z" transform="translate(-1085.771 -426.399)"/><path class="r" d="M1158.718,413.372h-21.743a.844.844,0,0,1-.825-.856h0a.844.844,0,0,1,.825-.856h21.743a.844.844,0,0,1,.825.856h0A.843.843,0,0,1,1158.718,413.372Z" transform="translate(-1115.18 -411.66)"/></g><path class="r" d="M1146.342,378.9h-11.628a.894.894,0,0,1-.875-.908v-.809a.894.894,0,0,1,.875-.908h11.628a.894.894,0,0,1,.875.908V378A.894.894,0,0,1,1146.342,378.9Z" transform="translate(-1113.35 -376.28)"/></g><path class="o" d="M1364.42,378.945a8.394,8.394,0,0,0,1.645,5.019,8.178,8.178,0,0,0,1.157,1.259,7.7,7.7,0,0,0,9.858.321,8.113,8.113,0,0,0,1.548-1.58,8.384,8.384,0,0,0,1.645-5.019,7.932,7.932,0,1,0-15.853,0Z" transform="translate(-1080.962 -290.773)"/><path class="s" d="M1387.084,392.531a.291.291,0,0,0-.04-.062.633.633,0,0,0-.127-.136l0,0a1.58,1.58,0,0,0-.391-.226l-.017-.006a6.193,6.193,0,0,0-1.591-.414c-.258-.041-.461-.067-.557-.078a4.025,4.025,0,0,1-.681-2.456l0,0s.3-.716.69-.492c.613.347,1.8-1.059,1.419-2.906a5.29,5.29,0,0,0-.145-.548,1.063,1.063,0,0,0,.407.1c.355,0,.893-.944.966-1.261s-.006-1.358-.495-1.667-1.23.045-1.263.058c.243-.354,1.074-.282,1.226-.265-1.94-.418-2.341.873-2.375.99-1.234-1.158-3.118.843-3.582,1.378q-.047.042-.094.091a1.355,1.355,0,0,0-.349.323,1.7,1.7,0,0,0-.32,1.069,3.911,3.911,0,0,0,.245,1.279c.112,1.119.424,2.505.922,2.546,0,0,.177,0,.443-.022,0,.013,0,.024,0,.037.008.188.015.4.017.61v.127c0,.563-.031,1.1-.154,1.164-.042,0-.077.006-.108.011-.05,0-.143.015-.143.015-.432.058-.74.1-.958.142a1.235,1.235,0,0,0-.646.216.926.926,0,0,0-.075.082,5.1,5.1,0,0,0-1.4,1.91,7.7,7.7,0,0,0,9.858.321A11.255,11.255,0,0,0,1387.084,392.531Z" transform="translate(-1091.649 -299.696)"/><g transform="translate(127.407 55.612)"><path class="n" d="M648.556,312.431l-35.286,5.224,23.418-16.565,1.19,5.31,8.582,1.613Z" transform="translate(-613.27 -291.767)"/><path class="o" d="M613.27,315.294l29.365-15.713,28.78-1.5Z" transform="translate(-613.27 -289.406)"/><path class="o" d="M636.688,267.173,613.27,283.737,631.4,257.85Z" transform="translate(-613.27 -257.85)"/></g></g><text class="v" transform="translate(349 19)"><tspan x="0" y="17">Skip</tspan></text></svg>